<?xml version="1.0" encoding="utf-8"?>
<!-- Generator: Adobe Illustrator 19.0.0, SVG Export Plug-In . SVG Version: 6.00 Build 0)  -->
<svg version="1.1" id="primary_logo" xmlns="http://www.w3.org/2000/svg" xmlns:xlink="http://www.w3.org/1999/xlink" x="0px"
	 y="0px" viewBox="-40.5 326.3 335.2 140" style="enable-background:new -40.5 326.3 335.2 140;" xml:space="preserve">
<style type="text/css">
	.st0{fill:#00B388;}
	.st1{fill:#FFFFFF;}
</style>
<g>
	<path id="element" class="st0" d="M-40.5,326.3v32.9h0H74.2v-32.9H-40.5z M67,352.1H-33.3v-18.6H67L67,352.1L67,352.1z"/>
	<path class="st1" d="M-33.3,413.7h-7.2v-32.9h7.2v13h12.8v-13h7.2v32.9h-7.2v-13.7h-12.8V413.7z M2.9,414.2
		c-7.3,0-12.2-4.6-12.2-12.1c0-7.3,4.8-12.4,11.3-12.4c7,0,10.5,4.7,10.5,11.7v2.6h-15c0.8,3.6,3.7,4.6,6.5,4.6
		c2.5,0,4.3-0.5,6.5-1.9h0.3v5.4C8.9,413.6,6.2,414.2,2.9,414.2z M-2.5,399.3H6c-0.2-2.4-1.2-4.1-4-4.1C0,395.2-1.9,396.1-2.5,399.3
		z M31.2,399.9l-3.7,13.8h-6.3L14,390.5v-0.3h6.9l3.9,13.9l3.7-13.9h5.6l3.7,13.9l4-13.9h6.6v0.3l-7.2,23.2h-6.3L31.2,399.9z
		 M60,414.2c-5.7,0-8-2.3-8-7.6v-25.9h7v25.4c0,1.6,0.6,2.2,2,2.2c0.5,0,1.2-0.2,1.6-0.3h0.1v5.7C62.1,414,61.1,414.2,60,414.2z
		 M76.8,414.2c-7.3,0-12.2-4.6-12.2-12.1c0-7.3,4.8-12.4,11.3-12.4c7,0,10.5,4.7,10.5,11.7v2.6h-15c0.8,3.6,3.7,4.6,6.5,4.6
		c2.5,0,4.3-0.5,6.5-1.9h0.3v5.4C82.8,413.6,80.1,414.2,76.8,414.2z M71.4,399.3h8.5c-0.2-2.4-1.2-4.1-4-4.1
		C73.9,395.2,72,396.1,71.4,399.3z M114.9,390.3h5.2v5.6h-5.2v9.5c0,2.1,0.8,3,2.9,3c0.6,0,1.3-0.1,2.1-0.3h0.2v5.5
		c-0.9,0.3-2.3,0.7-4.3,0.7c-5.6,0-7.9-2.6-7.9-8.5v-9.9h-8.9v9.5c0,2.1,0.8,3,2.9,3c0.6,0,1.3-0.1,2.1-0.3h0.2v5.5
		c-0.9,0.3-2.3,0.7-4.3,0.7c-5.6,0-7.9-2.6-7.9-8.5v-9.9h-3.6v-5.6h3.6v-6.4h7v6.4h8.9v-6.4h7L114.9,390.3L114.9,390.3z
		 M156.2,391.9c0,7.2-4.8,11.1-12.1,11.1H139v10.7h-7.2v-32.9h12.3C151.4,380.8,156.2,384.7,156.2,391.9z M143.5,397
		c3.6,0,5.4-2.1,5.4-5c0-3.1-1.7-5.1-5.4-5.1H139V397H143.5z M171.7,411.4c-1.5,1.8-3.8,2.7-6.2,2.7c-4.6,0-8.3-2.8-8.3-7.7
		c0-4.6,3.7-7.6,9.1-7.6c1.7,0,3.4,0.3,5.2,0.8v-0.4c0-2.5-1.4-3.6-5.2-3.6c-2.4,0-4.6,0.7-6.6,1.8h-0.3v-5.6c1.8-1.1,5-2,8.1-2
		c7.1,0,10.9,3.4,10.9,9.3v14.7h-6.7L171.7,411.4L171.7,411.4z M171.5,406.3v-2c-1.1-0.6-2.4-0.8-3.8-0.8c-2.3,0-3.6,0.8-3.6,2.7
		c0,2,1.4,2.8,3.4,2.8C169.4,409.1,170.8,408.1,171.5,406.3z M182,402c0-7.5,5.3-12.3,12.3-12.3c2.5,0,4.8,0.5,6.5,1.8v6h-0.3
		c-1.5-1.2-3.3-1.8-5.4-1.8c-3.5,0-6.1,2.4-6.1,6.4s2.6,6.3,6.1,6.3c2.1,0,3.8-0.7,5.4-1.8h0.3v6c-1.7,1.3-4.1,1.8-6.5,1.8
		C187.3,414.2,182,409.5,182,402z M212.1,403.1v10.6h-7v-32.9h7v18.8l7-9.3h7.9v0.3l-8.4,10.6l8.4,12.3v0.3h-8L212.1,403.1z
		 M242.8,411.4c-1.5,1.8-3.8,2.7-6.2,2.7c-4.6,0-8.3-2.8-8.3-7.7c0-4.6,3.7-7.6,9.1-7.6c1.7,0,3.4,0.3,5.2,0.8v-0.4
		c0-2.5-1.4-3.6-5.2-3.6c-2.4,0-4.6,0.7-6.6,1.8h-0.3v-5.6c1.8-1.1,5-2,8.1-2c7.1,0,10.9,3.4,10.9,9.3v14.7h-6.7L242.8,411.4
		L242.8,411.4z M242.6,406.3v-2c-1.1-0.6-2.4-0.8-3.8-0.8c-2.3,0-3.6,0.8-3.6,2.7c0,2,1.4,2.8,3.4,2.8
		C240.5,409.1,242,408.1,242.6,406.3z M261.3,394.1c1.3-2.6,3.1-4.1,5.7-4.1c0.9,0,1.9,0.2,2.3,0.4v6.6H269
		c-0.8-0.3-1.7-0.5-3.1-0.5c-2.2,0-3.8,1.3-4.4,3.7v13.5h-7v-23.5h6.7L261.3,394.1L261.3,394.1z M287.9,411.3c-1.5,1.9-3.8,3-7,3
		c-6,0-9.9-5.5-9.9-12.2c0-6.7,3.8-12.3,9.9-12.3c3.1,0,5.3,0.9,6.7,2.7v-11.6h7v32.9h-6.7L287.9,411.3L287.9,411.3z M287.7,405.8
		v-7.5c-1.2-1.7-2.7-2.4-4.4-2.4c-3.1,0-5.1,2.2-5.1,6.2c0,4,2.1,6.2,5.1,6.2C285,408.2,286.5,407.4,287.7,405.8z M-40.5,424.5h20.3
		v4h-15.8v10.1h14.3v3.9h-14.3v11h15.8v4h-20.3V424.5z M-3.3,433.7c5.2,0,8.1,3.4,8.1,9.1v14.6H0.4v-14.5c0-3-1.5-5.2-4.8-5.2
		c-2.7,0-5.1,1.7-5.9,4.2v15.4h-4.4v-23.2h4.4v3.4C-8.9,435.4-6.6,433.7-3.3,433.7z M16.5,434.2h6v3.7h-6v12.5
		c0,2.6,1.4,3.5,3.8,3.5c0.7,0,1.4-0.1,1.9-0.3h0.2v3.7c-0.6,0.3-1.5,0.5-2.7,0.5c-5.4,0-7.6-2.5-7.6-7V438h-4v-3.7h4v-6.2h4.4
		C16.5,428.1,16.5,434.2,16.5,434.2z M36.7,457.9c-6.8,0-11.4-4.5-11.4-11.8c0-7.3,4.3-12.3,10.6-12.3c6.4,0,9.7,4.6,9.7,11.4v2
		H29.6c0.5,4.7,3.5,7,7.6,7c2.6,0,4.4-0.6,6.5-2.1h0.2v3.9C42,457.3,39.6,457.9,36.7,457.9z M29.8,443.5h11.5
		c-0.2-3.4-1.8-6.1-5.4-6.1C32.6,437.5,30.4,440,29.8,443.5z M55.1,437.8c1-2.5,3.2-4,5.7-4c1,0,1.9,0.2,2.3,0.4v4.3H63
		c-0.6-0.3-1.7-0.5-2.7-0.5c-2.4,0-4.4,1.6-5.1,4.2v15.1h-4.4v-23.2h4.4L55.1,437.8L55.1,437.8z M78,433.7c6.9,0,10.6,5.6,10.6,12.1
		c0,6.4-3.7,12.1-10.6,12.1c-2.8,0-5.3-1.5-6.5-3.1v11.5h-4.4v-32.1h4.4v2.6C72.7,435.2,75.1,433.7,78,433.7z M77.2,453.9
		c4.3,0,6.9-3.4,6.9-8.1c0-4.6-2.5-8.1-6.9-8.1c-2.4,0-4.6,1.4-5.7,3.7v8.9C72.7,452.6,74.9,453.9,77.2,453.9z M98.1,437.8
		c1-2.5,3.2-4,5.7-4c1,0,1.9,0.2,2.3,0.4v4.3H106c-0.6-0.3-1.7-0.5-2.7-0.5c-2.4,0-4.4,1.6-5.1,4.2v15.1h-4.4v-23.2h4.4L98.1,437.8
		L98.1,437.8z M112.5,424.8c1.5,0,2.8,1.2,2.8,2.7c0,1.5-1.3,2.7-2.8,2.7c-1.5,0-2.8-1.2-2.8-2.7C109.7,426.1,111,424.8,112.5,424.8
		z M110.3,434.2h4.4v23.2h-4.4V434.2z M130.3,443.9c3.3,1.1,7,2.4,7,6.9c0,4.7-3.9,7.2-8.9,7.2c-3.1,0-6.1-0.7-7.9-2.1v-4.2h0.2
		c2,1.8,4.8,2.6,7.6,2.6c2.5,0,4.7-0.9,4.7-3c0-2.1-1.8-2.5-5.5-3.7c-3.3-1.1-6.9-2.3-6.9-6.6c0-4.5,3.7-7.1,8.4-7.1
		c2.7,0,5.2,0.6,7.1,1.9v4.2H136c-1.9-1.5-4.1-2.4-6.9-2.4c-2.7,0-4.3,1.2-4.3,2.8C124.8,442.1,126.5,442.7,130.3,443.9z
		 M152.5,457.9c-6.8,0-11.4-4.5-11.4-11.8c0-7.3,4.3-12.3,10.6-12.3c6.4,0,9.7,4.6,9.7,11.4v2h-15.9c0.5,4.7,3.5,7,7.6,7
		c2.6,0,4.4-0.6,6.5-2.1h0.2v3.9C157.8,457.3,155.4,457.9,152.5,457.9z M145.6,443.5h11.5c-0.2-3.4-1.8-6.1-5.4-6.1
		C148.4,437.5,146.2,440,145.6,443.5z"/>
</g>
</svg>
