<?xml version="1.0" encoding="utf-8"?>
<!-- Generator: Adobe Illustrator 16.0.4, SVG Export Plug-In . SVG Version: 6.00 Build 0)  -->
<!DOCTYPE svg PUBLIC "-//W3C//DTD SVG 1.1//EN" "http://www.w3.org/Graphics/SVG/1.1/DTD/svg11.dtd">
<svg version="1.1" id="Layer_1" xmlns="http://www.w3.org/2000/svg" xmlns:xlink="http://www.w3.org/1999/xlink" x="0px" y="0px"
	 width="341.09px" height="45px" viewBox="0 0 341.09 45" enable-background="new 0 0 341.09 45" xml:space="preserve">
<g>
	<path id="element" fill="#00B388" d="M-0.063,0v40.494l0,0h140.969V0H-0.063z M132.099,31.686H8.75V8.815h123.349V31.686z"/>
	<path fill="#333" d="M164.699,23.805v2.027h-8.25v5.1h7.502v1.975h-7.502v5.553h8.25v2.031h-10.572V23.805H164.699z M170.437,40.49h-2.269
		V28.207h2.136v2.297c0.881-1.549,2.296-2.561,4.111-2.561c2.856,0,4.539,1.869,4.539,4.672v7.875h-2.269v-7.824
		c0-1.629-0.855-2.59-2.75-2.59c-1.629,0-3.018,1.096-3.499,2.564V40.49z M188.242,40.756c-3.07,0-4.298-1.336-4.298-3.764v-6.781
		h-2.59v-2.004h2.59v-3.176h2.269v3.176h3.498v2.004h-3.498v6.568c0,1.467,0.827,1.867,2.242,1.867c0.374,0,0.749-0.053,1.069-0.16
		h0.187v2.004C189.363,40.623,188.882,40.756,188.242,40.756z M198.226,40.756c-4.085,0-6.675-2.402-6.675-6.273
		c0-3.844,2.403-6.539,5.928-6.539c3.63,0,5.473,2.428,5.473,6.031v1.201h-9.052c0.32,2.402,2.031,3.525,4.352,3.525
		c1.443,0,2.537-0.242,3.604-1.016h0.241v1.951C201.003,40.463,199.587,40.756,198.226,40.756z M193.927,33.387h6.809
		c-0.081-2.242-1.255-3.443-3.231-3.443C195.529,29.943,194.22,31.385,193.927,33.387z M212.879,30.531
		c-0.319-0.16-0.801-0.268-1.308-0.268c-1.442,0-2.589,1.016-3.069,2.67v7.557h-2.27V28.207h2.136v2.645
		c0.721-2.002,2.029-2.83,3.496-2.83c0.535,0,1.015,0.08,1.203,0.186v2.324H212.879z M217.604,38.486V45h-2.271V28.207h2.138v2.111
		c0.719-1.256,2.134-2.375,4.029-2.375c3.711,0,5.661,2.936,5.661,6.271c0,3.416-1.95,6.408-5.661,6.408
		C219.739,40.623,218.352,39.662,217.604,38.486z M224.839,34.215c0-2.482-1.388-4.139-3.871-4.139
		c-1.469,0-2.643,0.775-3.363,2.111v4.217c0.721,1.309,1.895,2.109,3.363,2.109C223.451,38.514,224.839,36.805,224.839,34.215z
		 M237.225,30.531c-0.32-0.16-0.801-0.268-1.308-0.268c-1.443,0-2.592,1.016-3.071,2.67v7.557h-2.269V28.207h2.136v2.645
		c0.72-2.002,2.027-2.83,3.497-2.83c0.533,0,1.015,0.08,1.201,0.186v2.324H237.225z M241.094,26.98
		c-0.854,0-1.628-0.721-1.628-1.604c0-0.881,0.773-1.572,1.628-1.572c0.881,0,1.629,0.691,1.629,1.572
		C242.723,26.26,241.975,26.98,241.094,26.98z M242.215,40.49h-2.269V28.207h2.269V40.49z M245.897,37.578h0.214
		c1.016,0.828,2.51,1.256,3.925,1.256c1.335,0,2.51-0.508,2.51-1.602c0-1.096-0.987-1.336-2.938-1.977
		c-1.734-0.588-3.683-1.199-3.683-3.523c0-2.43,1.974-3.789,4.511-3.789c1.441,0,2.724,0.291,3.79,1.012v2.082h-0.239
		c-0.962-0.719-2.109-1.174-3.524-1.174c-1.441,0-2.241,0.641-2.241,1.549c0,1.014,0.854,1.281,2.855,1.895
		c1.788,0.588,3.765,1.283,3.765,3.605c0,2.535-2.082,3.844-4.779,3.844c-1.628,0-3.256-0.4-4.165-1.119V37.578z M264.077,40.756
		c-4.085,0-6.674-2.402-6.674-6.273c0-3.844,2.402-6.539,5.927-6.539c3.631,0,5.474,2.428,5.474,6.031v1.201h-9.051
		c0.32,2.402,2.029,3.525,4.352,3.525c1.442,0,2.537-0.242,3.604-1.016h0.239v1.951C266.855,40.463,265.44,40.756,264.077,40.756z
		 M259.778,33.387h6.809c-0.08-2.242-1.254-3.443-3.229-3.443S260.073,31.385,259.778,33.387z M168.143,0v16.685h-3.63V9.771h-6.754
		v6.914h-3.631V0h3.631v6.593h6.754V0H168.143z M177.993,16.979c-4.593,0-7.049-2.483-7.049-6.487c0-4.004,2.564-6.647,6.275-6.647
		c4.003,0,6.005,2.509,6.005,6.274v1.415h-8.543c0.268,2.055,1.895,2.589,3.499,2.589c1.441,0,2.562-0.187,3.738-0.827h0.4v2.616
		C181.25,16.685,179.541,16.979,177.993,16.979z M174.654,9.237h4.993c-0.106-1.869-0.907-2.696-2.376-2.696
		C176.017,6.541,174.896,7.128,174.654,9.237z M187.494,16.685l-2.617-12.12V4.138h3.364l1.415,7.636l0.348,2.456l0.479-2.456
		l1.709-7.636h3.817l1.684,7.636l0.507,2.456l0.4-2.456l1.414-7.636h3.205v0.427l-2.645,12.12h-4.645l-1.494-6.701l-0.429-2.51
		l-0.428,2.51l-1.467,6.701H187.494z M209.623,16.979c-2.668,0-4.004-1.228-4.004-4.085V0h3.632v12.653
		c0,0.881,0.372,1.175,1.226,1.175c0.269,0,0.696-0.08,0.962-0.16h0.054v3.017C211.093,16.819,210.318,16.979,209.623,16.979z
		 M219.605,16.979c-4.591,0-7.048-2.483-7.048-6.487c0-4.004,2.565-6.647,6.275-6.647c4.004,0,6.006,2.509,6.006,6.274v1.415h-8.543
		c0.268,2.055,1.895,2.589,3.499,2.589c1.44,0,2.562-0.187,3.736-0.827h0.4v2.616C222.862,16.685,221.154,16.979,219.605,16.979z
		 M216.27,9.237h4.992c-0.107-1.869-0.908-2.696-2.375-2.696C217.63,6.541,216.511,7.128,216.27,9.237z M237.144,12.12V7.128h-5.312
		v4.832c0,1.281,0.428,1.869,1.629,1.869c0.348,0,0.802-0.107,1.042-0.213h0.346v2.989c-0.479,0.161-1.201,0.374-2.27,0.374
		c-3.07,0-4.378-1.468-4.378-4.859V7.128h-2.163v-2.99h2.163V1.094h3.631v3.044h5.312V1.094h3.631v3.044h3.017v2.99h-3.017v4.832
		c0,1.281,0.427,1.869,1.628,1.869c0.349,0,0.803-0.107,1.043-0.213h0.346v2.989c-0.479,0.161-1.201,0.374-2.269,0.374
		C238.452,16.979,237.144,15.511,237.144,12.12z M254.467,11.533v5.152h-3.604V0h6.488c3.685,0,6.113,2.028,6.113,5.793
		c0,3.71-2.429,5.74-6.113,5.74H254.467z M257.057,3.069h-2.59v5.393h2.59c1.843,0,2.725-1.094,2.725-2.669
		C259.781,4.165,258.899,3.069,257.057,3.069z M272.7,14.817c-0.748,1.388-2.11,2.002-3.792,2.002c-2.323,0-4.244-1.335-4.244-3.818
		s1.681-3.924,4.858-3.924c1.04,0,2.083,0.107,3.07,0.294V8.649c0-1.335-0.936-1.922-2.804-1.922c-1.389,0-2.536,0.293-3.497,0.774
		h-0.401V4.779c0.961-0.507,2.671-0.935,4.326-0.935c3.925,0,5.954,1.788,5.954,4.885v7.956H272.7V14.817z M272.593,12.76v-1.602
		c-0.615-0.187-1.415-0.24-2.056-0.24c-1.469,0-2.216,0.56-2.216,1.708c0,1.148,0.747,1.602,1.842,1.602
		C271.257,14.229,272.245,13.695,272.593,12.76z M278.837,10.438c0-4.059,2.857-6.594,6.568-6.594c1.521,0,2.695,0.347,3.496,0.881
		v3.15h-0.373c-0.774-0.587-1.629-0.854-2.724-0.854c-1.788,0-3.23,1.255-3.23,3.417c0,2.136,1.442,3.364,3.23,3.364
		c1.095,0,1.949-0.267,2.724-0.854h0.373v3.15c-0.801,0.534-1.975,0.881-3.496,0.881C281.694,16.979,278.837,14.469,278.837,10.438z
		 M295.334,10.599v6.086h-3.631V0h3.631v9.503l0.854-1.281l3.336-4.084h3.846v0.427l-4.646,5.259l4.646,6.434v0.427h-4.084
		l-3.098-4.592L295.334,10.599z M312.257,14.817c-0.747,1.388-2.108,2.002-3.79,2.002c-2.322,0-4.245-1.335-4.245-3.818
		s1.683-3.924,4.86-3.924c1.04,0,2.08,0.107,3.068,0.294V8.649c0-1.335-0.934-1.922-2.803-1.922c-1.388,0-2.536,0.293-3.497,0.774
		h-0.4V4.779c0.961-0.507,2.668-0.935,4.323-0.935c3.927,0,5.955,1.788,5.955,4.885v7.956h-3.472V14.817z M312.15,12.76v-1.602
		c-0.614-0.187-1.415-0.24-2.056-0.24c-1.467,0-2.216,0.56-2.216,1.708c0,1.148,0.749,1.602,1.843,1.602
		C310.816,14.229,311.804,13.695,312.15,12.76z M322.508,6.674c0.667-1.869,2.082-2.67,3.523-2.67c0.481,0,0.881,0.134,1.04,0.214
		v3.444h-0.372c-0.375-0.188-0.748-0.294-1.256-0.294c-1.44,0-2.481,0.668-2.776,2.083v7.235h-3.63V4.138h3.471V6.674z
		 M337.562,14.923c-0.826,1.308-2.135,2.056-3.764,2.056c-3.418,0-5.527-2.75-5.527-6.541c0-3.817,2.109-6.594,5.527-6.594
		c1.522,0,2.776,0.667,3.605,1.815V0h3.629v16.685h-3.471V14.923z M337.404,12.601V8.222c-0.668-0.961-1.576-1.415-2.616-1.415
		c-1.655,0-2.778,1.281-2.778,3.63c0,2.322,1.123,3.577,2.778,3.577C335.828,14.015,336.736,13.562,337.404,12.601z"/>
</g>
</svg>
